<svg width="512" height="512" viewBox="0 0 512 512" fill="none" xmlns="http://www.w3.org/2000/svg">
<path fill-rule="evenodd" clip-rule="evenodd" d="M151.971 134.774C154.595 131.746 159.063 131.113 162.432 133.291L367.364 265.791C370.341 267.716 371.696 271.356 370.7 274.747C369.703 278.138 366.589 280.477 363.04 280.5L212.355 281.5C210.487 281.513 208.673 280.877 207.225 279.702L156.802 238.803C150.259 241.675 143.873 244.561 137.852 249.284C130.775 254.835 124.128 263.077 120.074 277.198C119.089 280.633 115.935 283 112.347 283H41.023C37.8796 283 35.0248 281.176 33.7161 278.331C32.4074 275.486 32.8851 272.143 34.9387 269.774L151.971 134.774ZM159.558 150.511L58.5734 267H106.499C111.617 252.896 119.323 243.448 127.904 236.717C135.934 230.418 144.693 226.602 151.508 223.633C152.648 223.137 153.735 222.664 154.754 222.206C157.529 220.962 160.772 221.385 163.131 223.298L215.138 265.481L336.135 264.678L159.558 150.511Z" fill="#FF9B00"/>
<path fill-rule="evenodd" clip-rule="evenodd" d="M479.064 198.855C480.28 202.312 478.983 206.149 475.916 208.171L217.24 378.67C214.072 380.758 209.868 380.353 207.162 377.698L69.0345 242.198C66.7991 240.005 66.0506 236.718 67.1178 233.78C68.185 230.842 70.8727 228.791 74.0001 228.529L157.379 221.529C159.454 221.354 161.516 221.989 163.131 223.298L212.301 263.181L275.033 212.298C276.277 211.289 277.796 210.674 279.395 210.532L470.765 193.532C474.429 193.206 477.847 195.399 479.064 198.855ZM283.276 226.251L217.377 279.702C214.422 282.1 210.18 282.1 207.224 279.702L155.495 237.744L92.7613 243.01L213.801 361.748L440.571 212.278L283.276 226.251Z" fill="#FF9B00"/>
</svg>
